<svg id="Layer_1" data-name="Layer 1" xmlns="http://www.w3.org/2000/svg" viewBox="0 0 166.03 159.02"><circle cx="82.5" cy="82.49" r="50.5" style="fill:#004cff"/><circle cx="58.5" cy="67.49" r="6.5" style="fill:#003894"/><circle cx="83" cy="55.99" r="3" style="fill:#003894"/><circle cx="103" cy="105.99" r="9" style="fill:#003894"/><circle cx="63.5" cy="111.49" r="3.5" style="fill:#003894"/><circle cx="111" cy="72.99" r="10" style="fill:#003894"/><circle cx="76.5" cy="88.49" r="6.5" style="fill:#003894"/><circle cx="47" cy="87.99" r="2" style="fill:#003894"/><rect x="100" y="60" width="4" height="39" transform="translate(-76.32 32.93) rotate(-37.69)" style="fill:#004cff"/><rect x="80.93" y="137.82" width="4" height="39" transform="translate(-87.33 241.4) rotate(-109.22)" style="fill:#004cff"/><rect x="114.93" y="159.82" width="4" height="39" transform="translate(87.49 346.49) rotate(-152.14)" style="fill:#004cff"/><rect x="144.93" y="162.82" width="4" height="39" transform="translate(290.99 268.81) rotate(163.33)" style="fill:#004cff"/><rect x="182.93" y="128.82" width="4" height="39" transform="translate(345.74 -8.04) rotate(113.53)" style="fill:#004cff"/><rect x="188.93" y="84.85" width="4" height="39" transform="translate(151.53 -159.04) rotate(63.87)" style="fill:#004cff"/><rect x="146.53" y="51.42" width="4" height="39" transform="translate(-20.93 -87.25) rotate(17.43)" style="fill:#004cff"/><circle cx="40.52" cy="16.5" r="4.5" style="fill:#004cff"/><circle cx="106.54" cy="4.5" r="4.5" style="fill:#004cff"/><circle cx="161.53" cy="48.5" r="4.5" style="fill:#004cff"/><circle cx="153.52" cy="110.51" r="4.5" style="fill:#004cff"/><circle cx="103.52" cy="154.52" r="4.5" style="fill:#004cff"/><circle cx="60.52" cy="148.52" r="4.5" style="fill:#004cff"/><circle cx="15.52" cy="117.52" r="4.5" style="fill:#004cff"/><rect x="71.1" y="95.77" width="4" height="39" transform="translate(-109.34 97.97) rotate(-69.76)" style="fill:#004cff"/><circle cx="4.5" cy="61.49" r="4.5" style="fill:#004cff"/></svg>